#N canvas 480 276 450 301 10;
#X obj 178 29 inlet;
#X obj 170 59 bng 50 250 50 0 empty empty empty 17 7 0 10 -262144 -1
-1;
#X obj 60 146 clear_color;
#X obj 250 152 dimmer;
#X connect 0 0 1 0;
#X connect 1 0 2 0;
#X connect 1 0 3 0;
