#N canvas 214 172 814 534 10;
#X obj 355 29 inlet;
#X obj 340 65 bng 50 250 50 0 empty empty empty 17 7 0 10 -262144 -1
-1;
#X obj 338 133 delay 10;
#X msg 339 158 0 4000;
#X obj 170 237 f;
#X obj 171 313 line;
#X obj 190 208 r red;
#X obj 171 349 s red;
#X obj 245 275 f;
#X obj 246 351 line;
#X obj 247 388 s green;
#X obj 265 246 r green;
#X obj 328 313 f;
#X obj 301 376 line;
#X obj 345 284 r blue;
#X obj 308 441 s blue;
#X obj 407 300 f;
#X obj 399 371 line;
#X obj 418 266 r suit_blue;
#X obj 399 407 s suit_blue;
#X obj 505 242 f;
#X obj 497 313 line;
#X obj 516 208 r suit_green;
#X obj 499 349 s suit_green;
#X obj 609 164 f;
#X obj 601 235 line;
#X obj 620 130 r suit_red;
#X obj 603 271 s suit_red;
#X connect 0 0 1 0;
#X connect 1 0 2 0;
#X connect 1 0 4 0;
#X connect 1 0 8 0;
#X connect 1 0 12 0;
#X connect 1 0 24 0;
#X connect 1 0 20 0;
#X connect 1 0 16 0;
#X connect 2 0 3 0;
#X connect 3 0 5 0;
#X connect 3 0 9 0;
#X connect 3 0 13 0;
#X connect 3 0 17 0;
#X connect 3 0 21 0;
#X connect 3 0 25 0;
#X connect 4 0 5 0;
#X connect 5 0 7 0;
#X connect 6 0 4 1;
#X connect 8 0 9 0;
#X connect 9 0 10 0;
#X connect 11 0 8 1;
#X connect 12 0 13 0;
#X connect 13 0 15 0;
#X connect 14 0 12 1;
#X connect 16 0 17 0;
#X connect 17 0 19 0;
#X connect 18 0 16 1;
#X connect 20 0 21 0;
#X connect 21 0 23 0;
#X connect 22 0 20 1;
#X connect 24 0 25 0;
#X connect 25 0 27 0;
#X connect 26 0 24 1;
