#N canvas 71 106 783 292 10;
#X obj 90 52 inlet, f 10;
#X obj 93 96 % 12;
#X obj 93 127 i;
#X obj 93 151 select 0 1 2 3 4 5 6 7 8 9 10 11;
#X obj 97 224 outlet;
#X obj 140 224 outlet;
#X obj 184 224 outlet;
#X obj 229 224 outlet;
#X obj 273 224 outlet;
#X obj 319 223 outlet;
#X obj 363 223 outlet;
#X obj 407 223 outlet;
#X obj 454 224 outlet;
#X obj 498 223 outlet;
#X obj 542 222 outlet;
#X obj 588 222 outlet;
#X text 315 266 pitch class output;
#X floatatom 214 66 5 0 0 0 - - -, f 5;
#X floatatom 226 118 5 0 0 0 - - -, f 5;
#X obj 265 66 + 0.2;
#X connect 0 0 17 0;
#X connect 0 0 19 0;
#X connect 1 0 2 0;
#X connect 1 0 18 0;
#X connect 2 0 3 0;
#X connect 3 0 4 0;
#X connect 3 1 5 0;
#X connect 3 2 6 0;
#X connect 3 3 7 0;
#X connect 3 4 8 0;
#X connect 3 5 9 0;
#X connect 3 6 10 0;
#X connect 3 7 11 0;
#X connect 3 8 12 0;
#X connect 3 9 13 0;
#X connect 3 10 14 0;
#X connect 3 11 15 0;
#X connect 19 0 1 0;
