#N canvas 1091 143 309 322 10;
#X obj 66 56 vsl 50 200 0 1 0 0 hue empty Hue 0 -9 0 10 -258049 -1
-262144 14650 1;
#X obj 142 56 vsl 50 200 0 1 0 0 saturation empty Saturation 0 -9 0
10 -258049 -1 -262144 19900 1;
#X obj 219 56 vsl 50 200 0 1 0 0 value empty Value 0 -9 0 10 -258049
-1 -262144 19900 1;
#N canvas 156 139 875 781 hsv_conversion 0;
#X obj 260 48 r hue;
#X obj 466 49 r value;
#X obj 342 49 r saturation;
#X obj 259 80 * 360;
#X obj 354 268 pack f f f;
#X obj 255 284 t b;
#X obj 262 307 bng 15 250 50 0 empty empty empty 17 7 0 10 -262144
-1 -1;
#X obj 345 342 unpack f f f;
#X obj 378 522 *;
#X floatatom 379 555 5 0 0 0 C - -, f 5;
#X obj 469 530 +;
#X obj 469 506 * -1;
#X floatatom 469 554 5 0 0 0 m - -, f 5;
#X obj 292 377 / 60;
#X obj 295 427 - 1;
#X obj 293 452 abs;
#X obj 294 476 * -1;
#X obj 294 499 + 1;
#X obj 294 529 *;
#X floatatom 294 554 5 0 0 0 X - -, f 5;
#X obj 491 586 s m;
#N canvas 303 192 631 452 h_cases 0;
#X obj 126 31 inlet;
#X obj 86 82 moses 60;
#X obj 130 111 moses 120;
#X obj 176 136 moses 180;
#X obj 224 164 moses 240;
#X obj 269 192 moses 300;
#X msg 48 239 0;
#X msg 90 245 1;
#X msg 217 258 3;
#X msg 259 264 4;
#X msg 306 268 5;
#X msg 140 256 2;
#X obj 243 321 f;
#X obj 435 42 inlet;
#X obj 432 75 t b;
#X obj 239 358 outlet;
#X connect 0 0 1 0;
#X connect 1 0 6 0;
#X connect 1 1 2 0;
#X connect 2 0 7 0;
#X connect 2 1 3 0;
#X connect 3 0 11 0;
#X connect 3 1 4 0;
#X connect 4 0 8 0;
#X connect 4 1 5 0;
#X connect 5 0 9 0;
#X connect 5 1 10 0;
#X connect 6 0 12 1;
#X connect 7 0 12 1;
#X connect 8 0 12 1;
#X connect 9 0 12 1;
#X connect 10 0 12 1;
#X connect 11 0 12 1;
#X connect 12 0 15 0;
#X connect 13 0 14 0;
#X connect 14 0 12 0;
#X restore 153 566 pd h_cases;
#N canvas 505 319 649 301 CXvectors 0;
#X obj 168 21 inlet;
#X text 239 25 x and C;
#X obj 33 36 inlet;
#X msg 20 127 set \$2 \$1 0;
#X msg 103 127 set \$1 \$2 0;
#X msg 189 124 set 0 \$2 \$1;
#X msg 281 123 set 0 \$1 \$2;
#X msg 376 122 set \$1 0 \$2;
#X msg 482 121 set\$2 0 \$1;
#X obj 33 64 select 0 1 2 3 4 5;
#X msg 21 162 1 0.417 0;
#X obj 252 268 outlet;
#X msg 105 160 0.417 1 0;
#X msg 191 161 0 1 0.417;
#X msg 283 159 0 0.417 1;
#X msg 379 160 0.417 0 1;
#X msg 482 159;
#X connect 0 0 3 0;
#X connect 0 0 4 0;
#X connect 0 0 5 0;
#X connect 0 0 6 0;
#X connect 0 0 7 0;
#X connect 0 0 8 0;
#X connect 2 0 9 0;
#X connect 3 0 10 0;
#X connect 4 0 12 0;
#X connect 5 0 13 0;
#X connect 6 0 14 0;
#X connect 7 0 15 0;
#X connect 8 0 16 0;
#X connect 9 0 10 0;
#X connect 9 1 12 0;
#X connect 9 2 13 0;
#X connect 9 3 14 0;
#X connect 9 4 15 0;
#X connect 9 5 16 0;
#X connect 10 0 11 0;
#X connect 12 0 11 0;
#X connect 13 0 11 0;
#X connect 14 0 11 0;
#X connect 15 0 11 0;
#X connect 16 0 11 0;
#X restore 259 656 pd CXvectors;
#X obj 306 616 pack f f;
#X obj 259 685 print;
#X obj 235 712 s rgbprime;
#X obj 243 593 t b a;
#X floatatom 243 383 5 0 0 0 - - -, f 5;
#X floatatom 239 420 5 0 0 0 - - -, f 5;
#X obj 180 389 * 1000;
#X obj 174 420 % 2000;
#X obj 163 446 / 1000;
#X obj 269 117 t b a;
#X obj 332 244 f;
#X obj 369 243 f;
#X obj 409 242 f;
#X obj 252 141 s send_all;
#X obj 345 118 t b a;
#X obj 328 142 s send_all;
#X obj 430 119 t b a;
#X obj 413 143 s send_all;
#X obj 496 178 r send_all;
#X obj 484 206 t b b b;
#X obj 561 667 +;
#X obj 593 613 unpack f f f;
#X obj 591 666 r m;
#X obj 562 691 * 255;
#X obj 563 714 s red;
#X obj 623 665 +;
#X obj 653 664 r m;
#X obj 624 689 * 255;
#X obj 684 665 +;
#X obj 714 664 r m;
#X obj 685 689 * 255;
#X obj 625 712 s blue;
#X obj 686 712 s green;
#X obj 593 586 r rgbprime;
#X connect 0 0 3 0;
#X connect 1 0 39 0;
#X connect 2 0 37 0;
#X connect 3 0 32 0;
#X connect 4 0 5 0;
#X connect 4 0 7 0;
#X connect 5 0 6 0;
#X connect 7 0 13 0;
#X connect 7 0 21 0;
#X connect 7 1 8 0;
#X connect 7 2 8 1;
#X connect 7 2 10 1;
#X connect 8 0 9 0;
#X connect 8 0 11 0;
#X connect 9 0 18 1;
#X connect 9 0 23 1;
#X connect 10 0 12 0;
#X connect 11 0 10 0;
#X connect 12 0 20 0;
#X connect 13 0 27 0;
#X connect 13 0 29 0;
#X connect 14 0 15 0;
#X connect 15 0 16 0;
#X connect 16 0 17 0;
#X connect 17 0 18 0;
#X connect 18 0 19 0;
#X connect 19 0 23 0;
#X connect 21 0 22 0;
#X connect 22 0 24 0;
#X connect 22 0 25 0;
#X connect 23 0 26 0;
#X connect 26 0 21 1;
#X connect 26 1 22 1;
#X connect 29 0 30 0;
#X connect 30 0 31 0;
#X connect 31 0 14 0;
#X connect 31 0 28 0;
#X connect 32 0 36 0;
#X connect 32 1 33 1;
#X connect 33 0 4 0;
#X connect 34 0 4 1;
#X connect 35 0 4 2;
#X connect 37 0 38 0;
#X connect 37 1 34 1;
#X connect 39 0 40 0;
#X connect 39 1 35 1;
#X connect 41 0 42 0;
#X connect 42 0 33 0;
#X connect 42 1 34 0;
#X connect 42 2 35 0;
#X connect 43 0 46 0;
#X connect 44 0 43 0;
#X connect 44 1 48 0;
#X connect 44 2 51 0;
#X connect 45 0 43 1;
#X connect 46 0 47 0;
#X connect 48 0 50 0;
#X connect 49 0 48 1;
#X connect 50 0 54 0;
#X connect 51 0 53 0;
#X connect 52 0 51 1;
#X connect 53 0 55 0;
#X connect 56 0 44 0;
#X restore 116 285 pd hsv_conversion;
