#N canvas 559 182 833 537 10;
#X obj 92 77 inlet;
#X obj 122 180 unpack f f f f;
#X msg 186 101 0 4 7 11;
#X floatatom 94 214 5 0 0 0 - - -, f 5;
#X floatatom 162 253 5 0 0 0 - - -, f 5;
#X floatatom 211 224 5 0 0 0 - - -, f 5;
#X floatatom 293 248 5 0 0 0 - - -, f 5;
#X obj 93 481 outlet;
#X connect 1 0 3 0;
#X connect 1 1 4 0;
#X connect 1 2 5 0;
#X connect 1 3 6 0;
#X connect 2 0 1 0;
