#N canvas 403 65 907 689 10;
#X obj 46 379 * 255;
#X obj 47 428 line;
#X obj 216 425 line;
#X obj 216 377 * 255;
#X obj 216 448 s green;
#X obj 48 453 s red;
#X obj 456 426 line;
#X obj 456 379 * 255;
#X obj 456 448 s blue;
#N canvas 42 105 657 628 pitch-tracking 0;
#X obj 113 9 adc~;
#X floatatom 119 122 5 0 0 0 - - -, f 5;
#X obj 121 148 - 36;
#X obj 121 170 / 61;
#X obj 119 198 outlet;
#X obj 240 198 outlet;
#X obj 127 77 fiddle~ 2048 1 20 2;
#X obj 176 128 unpack;
#X connect 0 0 6 0;
#X connect 1 0 2 0;
#X connect 2 0 3 0;
#X connect 3 0 4 0;
#X connect 6 0 1 0;
#X connect 6 2 7 0;
#X connect 6 3 5 0;
#X restore 48 81 pd pitch-tracking;
#X obj 48 140 t a a a;
#N canvas 615 22 450 300 invert 0;
#X obj 82 55 * -1;
#X obj 82 77 + 1;
#X obj 72 20 inlet;
#X obj 64 119 outlet;
#X connect 0 0 1 0;
#X connect 1 0 3 0;
#X connect 2 0 0 0;
#X restore 453 228 pd invert;
#X obj 47 169 moses 0.5955;
#X obj 85 200 - 0.5955;
#X obj 85 223 / 0.4045;
#X floatatom 46 251 5 0 0 0 - - -, f 5;
#X obj 455 192 / 0.4045;
#X obj 455 159 moses 0.4045;
#X floatatom 551 176 5 0 0 0 - - -, f 5;
#X msg 525 211 0;
#X floatatom 455 260 5 0 0 0 - - -, f 5;
#X msg 42 207 0;
#X obj 213 195 moses 0.5;
#X obj 183 231 moses 0.1545;
#X obj 269 230 moses 0.8455;
#X msg 327 257 0;
#X msg 178 259 0;
#X floatatom 248 350 5 0 0 0 - - -, f 5;
#X obj 219 287 / 0.3455;
#X obj 285 283 / 0.3455;
#X obj 280 258 - 0.5;
#X obj 214 258 - 0.1545;
#N canvas 615 22 450 300 invert 0;
#X obj 82 55 * -1;
#X obj 82 77 + 1;
#X obj 72 20 inlet;
#X obj 64 119 outlet;
#X connect 0 0 1 0;
#X connect 1 0 3 0;
#X connect 2 0 0 0;
#X restore 287 311 pd invert;
#X obj 48 111 hsl 128 15 0 1 0 0 empty empty empty -2 -8 0 10 -262144
-1 -1 0 1;
#X msg 216 401 \$1 1000;
#X msg 456 403 \$1 1000;
#X msg 46 402 \$1 500;
#X text 49 15 lighting module 24-06-2017 lights R \, G \, B from left
to right following marimba pitch;
#X connect 0 0 36 0;
#X connect 1 0 5 0;
#X connect 2 0 4 0;
#X connect 3 0 34 0;
#X connect 6 0 8 0;
#X connect 7 0 35 0;
#X connect 9 0 33 0;
#X connect 10 0 12 0;
#X connect 10 1 22 0;
#X connect 10 2 17 0;
#X connect 11 0 20 0;
#X connect 12 0 21 0;
#X connect 12 1 13 0;
#X connect 13 0 14 0;
#X connect 14 0 15 0;
#X connect 15 0 0 0;
#X connect 16 0 11 0;
#X connect 17 0 16 0;
#X connect 17 1 18 0;
#X connect 17 1 19 0;
#X connect 19 0 20 0;
#X connect 20 0 7 0;
#X connect 21 0 15 0;
#X connect 22 0 23 0;
#X connect 22 1 24 0;
#X connect 23 0 26 0;
#X connect 23 1 31 0;
#X connect 24 0 30 0;
#X connect 24 1 25 0;
#X connect 25 0 27 0;
#X connect 26 0 27 0;
#X connect 27 0 3 0;
#X connect 28 0 27 0;
#X connect 29 0 32 0;
#X connect 30 0 29 0;
#X connect 31 0 28 0;
#X connect 32 0 27 0;
#X connect 33 0 10 0;
#X connect 34 0 2 0;
#X connect 35 0 6 0;
#X connect 36 0 1 0;
