#N canvas 728 36 741 622 10;
#X obj 62 199 oscparse;
#X obj 63 164 netreceive -u -b;
#X msg 169 109 listen 0;
#X text 237 103 stop listening;
#X text 223 70 packets from network;
#X text 328 94 slisten on port 5000;
#X text 365 149 UDP packets \, binary output, f 13;
#X msg 57 119 listen 9999;
#X obj 60 222 list trim;
#X obj 499 140 unpack f f f;
#X obj 467 260 vsl 50 128 -100 100 0 0 empty empty empty 0 -9 0 10
-262144 -1 -1 7175 1;
#X obj 528 260 vsl 50 128 -100 100 0 0 empty empty empty 0 -9 0 10
-262144 -1 -1 7175 1;
#X obj 590 262 vsl 50 128 -100 100 0 0 empty empty empty 0 -9 0 10
-262144 -1 -1 8128 1;
#X obj 59 252 route accel tap doubletap;
#X obj 231 316 bng 50 250 50 0 empty empty empty 17 7 0 10 -262144
-1 -1;
#X obj 304 315 bng 50 250 50 0 empty empty empty 17 7 0 10 -262144
-1 -1;
#X obj 468 418 + 50;
#X obj 529 419 + 50;
#X obj 594 415 + 50;
#X obj 469 446 * 2.5;
#X obj 526 448 * 2.5;
#X obj 599 452 * 2.5;
#X obj 461 216 line;
#X msg 461 194 \$1 50;
#X obj 523 216 line;
#X msg 523 194 \$1 50;
#X obj 586 223 line;
#X msg 586 201 \$1 50;
#N canvas 115 74 474 345 tap_detector 0;
#X obj 115 15 inlet;
#X obj 111 50 unpack f f f;
#X obj 83 100 pow 2;
#X obj 131 101 pow 2;
#X obj 179 100 pow 2;
#X obj 101 129 +;
#X obj 149 150 +;
#X obj 127 177 sqrt;
#X obj 29 149 vsl 15 128 0 200 0 0 empty empty empty 0 -9 0 10 -262144
-1 -1 2127 1;
#X floatatom 29 287 5 0 0 0 - - -, f 5;
#X obj 371 230 bng 50 250 50 0 empty empty empty 17 7 0 10 -258049
-1 -1;
#X obj 331 184 moses 100;
#X obj 307 231 bng 50 250 50 0 empty empty empty 17 7 0 10 -262081
-1 -1;
#X obj 212 190 moses 45;
#X obj 307 286 outlet;
#X obj 372 288 outlet;
#X obj 274 187 moses 75;
#X obj 246 231 bng 50 250 50 0 empty empty empty 17 7 0 10 -4033 -1
-1;
#X obj 246 286 outlet;
#X connect 0 0 1 0;
#X connect 1 0 2 0;
#X connect 1 1 3 0;
#X connect 1 2 4 0;
#X connect 2 0 5 0;
#X connect 3 0 5 1;
#X connect 4 0 6 1;
#X connect 5 0 6 0;
#X connect 6 0 7 0;
#X connect 7 0 8 0;
#X connect 7 0 13 0;
#X connect 8 0 9 0;
#X connect 10 0 15 0;
#X connect 11 0 12 0;
#X connect 11 1 10 0;
#X connect 12 0 14 0;
#X connect 13 1 16 0;
#X connect 16 0 17 0;
#X connect 16 1 11 0;
#X connect 17 0 18 0;
#X restore 60 320 pd tap_detector;
#X obj 58 75 select 1 0;
#X obj 54 28 inlet;
#X obj 59 351 outlet;
#X obj 106 351 outlet, f 7;
#X obj 159 350 outlet;
#X obj 444 536 outlet;
#X obj 464 487 / 255;
#X obj 317 503 min 1;
#X floatatom 278 571 5 0 0 0 - - -, f 5;
#X connect 0 0 8 0;
#X connect 1 0 0 0;
#X connect 2 0 1 0;
#X connect 7 0 1 0;
#X connect 8 0 13 0;
#X connect 9 0 23 0;
#X connect 9 1 25 0;
#X connect 9 2 27 0;
#X connect 10 0 16 0;
#X connect 11 0 17 0;
#X connect 12 0 18 0;
#X connect 13 0 9 0;
#X connect 13 0 28 0;
#X connect 13 1 14 0;
#X connect 13 2 15 0;
#X connect 16 0 19 0;
#X connect 17 0 20 0;
#X connect 18 0 21 0;
#X connect 19 0 35 0;
#X connect 22 0 10 0;
#X connect 23 0 22 0;
#X connect 24 0 11 0;
#X connect 25 0 24 0;
#X connect 26 0 12 0;
#X connect 27 0 26 0;
#X connect 28 0 31 0;
#X connect 28 1 32 0;
#X connect 28 2 33 0;
#X connect 29 0 7 0;
#X connect 29 1 2 0;
#X connect 30 0 29 0;
#X connect 35 0 36 0;
#X connect 36 0 34 0;
#X connect 36 0 37 0;
