#N canvas 652 142 741 622 10;
#X obj 187 214 oscparse;
#X obj 103 290 print parse-output;
#X obj 435 159 netreceive -u -b;
#X msg 447 132 listen 0;
#X text 536 131 stop listening;
#X msg 73 109 1 2 3 foo 5;
#X text 67 84 numbers and symbols;
#X obj 73 134 oscformat dog cat;
#X obj 238 134 oscformat -f b weasel;
#X msg 238 109 -1 1 2 3 4 5;
#X obj 73 214 print packet;
#X text 250 83 a blob;
#X text 432 80 packets from network;
#X text 537 104 slisten on port 5000;
#X text 574 159 UDP packets \, binary output, f 13;
#X msg 435 104 listen 9999;
#X obj 288 254 list trim;
#X obj 237 326 unpack f f f;
#X obj 467 260 vsl 50 128 -100 100 0 0 empty empty empty 0 -9 0 10
-262144 -1 -1 5905 1;
#X obj 528 260 vsl 50 128 -100 100 0 0 empty empty empty 0 -9 0 10
-262144 -1 -1 6350 1;
#X obj 590 262 vsl 50 128 -100 100 0 0 empty empty empty 0 -9 0 10
-262144 -1 -1 8763 1;
#X obj 261 284 route accel tap doubletap;
#X obj 284 378 bng 50 250 50 0 empty empty empty 17 7 0 10 -262144
-1 -1;
#X obj 360 376 bng 50 250 50 0 empty empty empty 17 7 0 10 -262144
-1 -1;
#X obj 463 487 s red;
#X obj 526 470 s green;
#X obj 599 474 s blue;
#X obj 468 418 + 50;
#X obj 529 419 + 50;
#X obj 594 415 + 50;
#X obj 469 446 * 2.5;
#X obj 526 448 * 2.5;
#X obj 599 452 * 2.5;
#X connect 0 0 16 0;
#X connect 2 0 0 0;
#X connect 3 0 2 0;
#X connect 5 0 7 0;
#X connect 7 0 0 0;
#X connect 7 0 10 0;
#X connect 8 0 0 0;
#X connect 8 0 10 0;
#X connect 9 0 8 0;
#X connect 15 0 2 0;
#X connect 16 0 21 0;
#X connect 17 0 18 0;
#X connect 17 1 19 0;
#X connect 17 2 20 0;
#X connect 18 0 27 0;
#X connect 19 0 28 0;
#X connect 20 0 29 0;
#X connect 21 0 17 0;
#X connect 21 1 22 0;
#X connect 21 2 23 0;
#X connect 27 0 30 0;
#X connect 28 0 31 0;
#X connect 29 0 32 0;
#X connect 30 0 24 0;
#X connect 31 0 25 0;
#X connect 32 0 26 0;
