#N canvas 625 2 787 528 10;
#X obj 318 14 inlet, f 10;
#X obj 310 349 outlet;
#X obj 238 351 outlet;
#X obj 375 352 outlet;
#X obj 297 311 unpack s f f f;
#X obj 430 351 outlet;
#X msg 33 226 C 255 0 0;
#X msg 241 194 D# 0 110 20, f 12;
#X msg 281 222 E 255 255 255;
#X msg 412 189 F# 41 255 255;
#X msg 468 219 G 255 40 0;
#X msg 504 194 G# 255 0 111;
#X msg 581 222 A 0 255 0;
#X msg 721 221 B 0 0 255;
#X obj 300 104 select 0 1 2 3 4 5 6 7 8 9 10 11;
#X text 340 377 note color output (R \, G \, B \, dim);
#X msg 101 193 C# 182 0 255;
#X msg 165 225 D 255 119 0;
#X msg 372 219 F 191 255 0;
#X msg 637 193 A# 80 40 255;
#X connect 0 0 14 0;
#X connect 4 0 2 0;
#X connect 4 1 1 0;
#X connect 4 2 3 0;
#X connect 4 3 5 0;
#X connect 6 0 4 0;
#X connect 7 0 4 0;
#X connect 8 0 4 0;
#X connect 9 0 4 0;
#X connect 10 0 4 0;
#X connect 11 0 4 0;
#X connect 12 0 4 0;
#X connect 13 0 4 0;
#X connect 14 0 6 0;
#X connect 14 1 16 0;
#X connect 14 2 17 0;
#X connect 14 3 7 0;
#X connect 14 4 8 0;
#X connect 14 5 18 0;
#X connect 14 6 9 0;
#X connect 14 7 10 0;
#X connect 14 8 11 0;
#X connect 14 9 12 0;
#X connect 14 10 19 0;
#X connect 14 11 13 0;
#X connect 16 0 4 0;
#X connect 17 0 4 0;
#X connect 18 0 4 0;
#X connect 19 0 4 0;
