#N canvas 207 175 711 769 10;
#X msg 112 541 disconnect;
#X obj 104 568 netsend -u -b;
#X obj 105 467 list prepend send;
#X obj 105 492 list trim;
#X obj 118 103 vsl 40 128 0 255 0 0 empty empty empty 0 -9 0 10 -258113
-1 -1 0 1;
#X obj 167 103 vsl 40 128 0 255 0 0 empty empty empty 0 -9 0 10 -4034
-1 -1 0 1;
#X obj 214 103 vsl 40 128 0 255 0 0 empty empty empty 0 -9 0 10 -4160
-1 -1 0 1;
#X obj 128 271 t f b;
#X obj 177 270 t f b;
#X obj 224 269 t f b;
#X obj 46 282 t b;
#X obj 127 297 i;
#X obj 177 299 i;
#X obj 224 297 i;
#X floatatom 125 325 5 0 0 0 - - -, f 5;
#X floatatom 175 324 5 0 0 0 - - -, f 5;
#X floatatom 223 328 5 0 0 0 - - -, f 5;
#X obj 275 103 vsl 40 128 0 255 0 0 empty empty empty 0 -9 0 10 -262144
-1 -1 150 1;
#X obj 274 268 t f b;
#X obj 280 299 i;
#X floatatom 279 324 5 0 0 0 - - -, f 5;
#X obj 200 245 pack f f f f;
#X obj 96 443 oscformat -f iiii /pixel;
#X msg 113 517 connect 192.168.1.9 8888;
#X obj 220 467 loadbang;
#X connect 0 0 1 0;
#X connect 2 0 3 0;
#X connect 3 0 1 0;
#X connect 4 0 7 0;
#X connect 5 0 8 0;
#X connect 6 0 9 0;
#X connect 7 0 11 1;
#X connect 7 1 10 0;
#X connect 8 0 12 1;
#X connect 8 1 10 0;
#X connect 9 0 13 1;
#X connect 9 1 10 0;
#X connect 10 0 11 0;
#X connect 10 0 12 0;
#X connect 10 0 13 0;
#X connect 10 0 19 0;
#X connect 11 0 14 0;
#X connect 11 0 21 0;
#X connect 12 0 15 0;
#X connect 12 0 21 1;
#X connect 13 0 16 0;
#X connect 13 0 21 2;
#X connect 17 0 18 0;
#X connect 18 0 19 1;
#X connect 18 1 10 0;
#X connect 19 0 20 0;
#X connect 20 0 21 3;
#X connect 21 0 22 0;
#X connect 22 0 2 0;
#X connect 23 0 1 0;
#X connect 24 0 23 0;
