#N canvas 425 49 711 769 10;
#X obj 180 302 oscparse;
#X obj 72 301 print packet;
#X text 270 266 creation arguments are OSC address;
#X text 138 137 OSC messages with numbers and symbols. Except as shown
below the message will contain 'float' and 'string' data.;
#X msg 342 379 disconnect;
#X obj 334 406 netsend -u -b;
#X obj 335 305 list prepend send;
#X obj 335 330 list trim;
#X obj 180 327 print reassembled;
#X text 437 379 don't send;
#X text 226 205 set message to change OSC address;
#X text 530 354 send as UDP;
#X msg 72 147 0;
#X msg 75 107 1;
#X obj 72 268 oscformat -f i /led;
#X obj 117 25 tgl 15 0 empty empty empty 17 7 0 10 -262144 -1 -1 0
1;
#X obj 148 103 f;
#X obj 264 111 % 2;
#X msg 274 68 1;
#X floatatom 124 201 5 0 0 0 - - -, f 5;
#X obj 231 101 + 1;
#X obj 171 56 metro 250;
#X msg 105 509 0 225 0;
#X msg 95 557 225 0 0;
#X msg 206 535 120 120 120;
#X obj 406 486 vsl 40 128 0 255 0 0 empty empty empty 0 -9 0 10 -258113
-1 -1 9700 1;
#X obj 455 480 vsl 40 128 0 255 0 0 empty empty empty 0 -9 0 10 -4034
-1 -1 2900 1;
#X obj 502 481 vsl 40 128 0 255 0 0 empty empty empty 0 -9 0 10 -4160
-1 -1 9200 1;
#X obj 416 654 t f b;
#X obj 465 653 t f b;
#X obj 512 652 t f b;
#X obj 334 665 t b;
#X obj 415 680 i;
#X obj 465 682 i;
#X obj 512 680 i;
#X floatatom 413 708 5 0 0 0 - - -, f 5;
#X floatatom 463 707 5 0 0 0 - - -, f 5;
#X floatatom 511 711 5 0 0 0 - - -, f 5;
#X obj 563 480 vsl 40 128 0 255 0 0 empty empty empty 0 -9 0 10 -262144
-1 -1 8000 1;
#X obj 562 651 t f b;
#X obj 568 682 i;
#X floatatom 567 707 5 0 0 0 - - -, f 5;
#X obj 488 628 pack f f f f;
#X obj 114 628 oscformat -f iiiii /light;
#X msg 343 355 connect 192.168.1.100 8888;
#X connect 0 0 8 0;
#X connect 4 0 5 0;
#X connect 6 0 7 0;
#X connect 7 0 5 0;
#X connect 12 0 14 0;
#X connect 13 0 14 0;
#X connect 14 0 1 0;
#X connect 14 0 6 0;
#X connect 14 0 0 0;
#X connect 15 0 21 0;
#X connect 16 0 14 0;
#X connect 16 0 19 0;
#X connect 16 0 20 0;
#X connect 17 0 16 1;
#X connect 18 0 16 1;
#X connect 20 0 17 0;
#X connect 21 0 16 0;
#X connect 22 0 43 0;
#X connect 23 0 43 0;
#X connect 24 0 43 0;
#X connect 25 0 28 0;
#X connect 26 0 29 0;
#X connect 27 0 30 0;
#X connect 28 0 32 1;
#X connect 28 1 31 0;
#X connect 29 0 33 1;
#X connect 29 1 31 0;
#X connect 30 0 34 1;
#X connect 30 1 31 0;
#X connect 31 0 32 0;
#X connect 31 0 33 0;
#X connect 31 0 34 0;
#X connect 31 0 40 0;
#X connect 32 0 35 0;
#X connect 32 0 42 0;
#X connect 33 0 36 0;
#X connect 33 0 42 1;
#X connect 34 0 37 0;
#X connect 34 0 42 2;
#X connect 38 0 39 0;
#X connect 39 0 40 1;
#X connect 39 1 31 0;
#X connect 40 0 41 0;
#X connect 41 0 42 3;
#X connect 42 0 43 0;
#X connect 43 0 6 0;
#X connect 44 0 5 0;
