#N canvas 615 22 704 497 10;
#N canvas 20 79 657 651 pitch-tracking 0;
#X obj 113 9 adc~;
#X floatatom 171 122 5 0 0 0 - - -, f 5;
#X obj 173 148 - 36;
#X obj 173 170 / 61;
#X obj 171 198 outlet;
#X obj 240 198 outlet;
#X obj 127 77 fiddle~ 2048 1 20 2;
#X obj 88 197 outlet;
#X connect 0 0 6 0;
#X connect 1 0 2 0;
#X connect 2 0 3 0;
#X connect 3 0 4 0;
#X connect 6 0 1 0;
#X connect 6 0 7 0;
#X connect 6 3 5 0;
#X restore 103 62 pd pitch-tracking;
#X obj 365 120 hsl 128 15 0 1 0 0 empty empty empty -2 -8 0 10 -262144
-1 -1 3555 1;
#X obj 108 184 detect_pitch_class;
#X obj 69 297 bng 15 250 50 0 empty empty empty 17 7 0 10 -262144 -1
-1;
#X msg 69 317 100 100 100;
#X obj 100 249 bng 15 250 50 0 empty empty empty 17 7 0 10 -262144
-1 -1;
#X msg 100 269 100 100 100;
#X obj 184 251 bng 15 250 50 0 empty empty empty 17 7 0 10 -262144
-1 -1;
#X msg 184 271 100 100 100, f 12;
#X obj 100 249 bng 15 250 50 0 empty empty empty 17 7 0 10 -262144
-1 -1;
#X msg 100 269 100 100 100;
#X obj 151 296 bng 15 250 50 0 empty empty empty 17 7 0 10 -262144
-1 -1;
#X msg 151 316 100 100 100;
#X obj 151 296 bng 15 250 50 0 empty empty empty 17 7 0 10 -262144
-1 -1;
#X msg 151 316 100 100 100;
#X obj 151 296 bng 15 250 50 0 empty empty empty 17 7 0 10 -262144
-1 -1;
#X msg 151 316 100 100 100;
#X obj 151 296 bng 15 250 50 0 empty empty empty 17 7 0 10 -262144
-1 -1;
#X msg 151 316 100 100 100;
#X obj 232 295 bng 15 250 50 0 empty empty empty 17 7 0 10 -262144
-1 -1;
#X msg 232 315 100 100 100;
#X obj 232 295 bng 15 250 50 0 empty empty empty 17 7 0 10 -262144
-1 -1;
#X msg 232 315 100 100 100;
#X obj 315 295 bng 15 250 50 0 empty empty empty 17 7 0 10 -262144
-1 -1;
#X msg 315 316 100 100 100;
#X obj 315 295 bng 15 250 50 0 empty empty empty 17 7 0 10 -262144
-1 -1;
#X msg 315 316 100 100 100;
#X obj 396 295 bng 15 250 50 0 empty empty empty 17 7 0 10 -262144
-1 -1;
#X msg 396 315 100 100 100;
#X obj 396 295 bng 15 250 50 0 empty empty empty 17 7 0 10 -262144
-1 -1;
#X msg 396 315 100 100 100;
#X obj 480 294 bng 15 250 50 0 empty empty empty 17 7 0 10 -262144
-1 -1;
#X msg 480 314 100 100 100;
#X obj 480 294 bng 15 250 50 0 empty empty empty 17 7 0 10 -262144
-1 -1;
#X msg 480 314 100 100 100;
#X obj 564 293 bng 15 250 50 0 empty empty empty 17 7 0 10 -262144
-1 -1;
#X msg 564 313 100 100 100;
#X obj 564 293 bng 15 250 50 0 empty empty empty 17 7 0 10 -262144
-1 -1;
#X msg 564 313 100 100 100;
#X obj 351 249 bng 15 250 50 0 empty empty empty 17 7 0 10 -262144
-1 -1;
#X msg 351 269 100 100 100;
#X obj 351 249 bng 15 250 50 0 empty empty empty 17 7 0 10 -262144
-1 -1;
#X msg 351 269 100 100 100;
#X obj 435 248 bng 15 250 50 0 empty empty empty 17 7 0 10 -262144
-1 -1;
#X msg 435 268 100 100 100;
#X obj 435 248 bng 15 250 50 0 empty empty empty 17 7 0 10 -262144
-1 -1;
#X msg 435 268 100 100 100;
#X obj 519 247 bng 15 250 50 0 empty empty empty 17 7 0 10 -262144
-1 -1;
#X msg 519 267 100 100 100;
#X obj 519 247 bng 15 250 50 0 empty empty empty 17 7 0 10 -262144
-1 -1;
#X msg 519 267 100 100 100;
#X obj 341 375 unpack f f f;
#X obj 306 458 s red;
#X obj 366 171 s dim;
#X obj 355 458 s green;
#X obj 412 458 s blue;
#X obj 365 145 * 255;
#X obj 293 429 line;
#X msg 294 404 \$1 100;
#X obj 361 427 line;
#X msg 362 402 \$1 100;
#X obj 416 425 line;
#X msg 417 400 \$1 100;
#X connect 0 0 2 0;
#X connect 0 1 1 0;
#X connect 1 0 56 0;
#X connect 2 0 3 0;
#X connect 2 1 9 0;
#X connect 2 2 17 0;
#X connect 2 3 7 0;
#X connect 2 4 21 0;
#X connect 2 5 25 0;
#X connect 2 6 41 0;
#X connect 2 7 29 0;
#X connect 2 8 45 0;
#X connect 2 9 33 0;
#X connect 2 10 49 0;
#X connect 2 11 37 0;
#X connect 3 0 4 0;
#X connect 4 0 51 0;
#X connect 5 0 6 0;
#X connect 6 0 51 0;
#X connect 7 0 8 0;
#X connect 8 0 51 0;
#X connect 9 0 10 0;
#X connect 10 0 51 0;
#X connect 11 0 12 0;
#X connect 12 0 51 0;
#X connect 13 0 14 0;
#X connect 14 0 51 0;
#X connect 15 0 16 0;
#X connect 16 0 51 0;
#X connect 17 0 18 0;
#X connect 18 0 51 0;
#X connect 19 0 20 0;
#X connect 20 0 51 0;
#X connect 21 0 22 0;
#X connect 22 0 51 0;
#X connect 23 0 24 0;
#X connect 24 0 51 0;
#X connect 25 0 26 0;
#X connect 26 0 51 0;
#X connect 27 0 28 0;
#X connect 28 0 51 0;
#X connect 29 0 30 0;
#X connect 30 0 51 0;
#X connect 31 0 32 0;
#X connect 32 0 51 0;
#X connect 33 0 34 0;
#X connect 34 0 51 0;
#X connect 35 0 36 0;
#X connect 36 0 51 0;
#X connect 37 0 38 0;
#X connect 38 0 51 0;
#X connect 39 0 40 0;
#X connect 40 0 51 0;
#X connect 41 0 42 0;
#X connect 42 0 51 0;
#X connect 43 0 44 0;
#X connect 44 0 51 0;
#X connect 45 0 46 0;
#X connect 46 0 51 0;
#X connect 47 0 48 0;
#X connect 48 0 51 0;
#X connect 49 0 50 0;
#X connect 50 0 51 0;
#X connect 51 0 58 0;
#X connect 51 1 60 0;
#X connect 51 2 62 0;
#X connect 56 0 53 0;
#X connect 57 0 52 0;
#X connect 58 0 57 0;
#X connect 59 0 54 0;
#X connect 60 0 59 0;
#X connect 61 0 55 0;
#X connect 62 0 61 0;
