#N canvas 207 22 1393 362 10;
#X obj 44 41 vsl 50 200 0 1 0 0 hue empty Hue 0 -9 0 10 -258049 -1
-262144 5628 1;
#X obj 120 41 vsl 50 200 0 1 0 0 saturation empty Saturation 0 -9 0
10 -258049 -1 -262144 17555 1;
#X obj 195 42 vsl 50 200 0 1 0 0 value empty Value 0 -9 0 10 -258049
-1 -262144 19900 1;
#N canvas 156 139 875 781 hsv_conversion 0;
#X obj 259 80 * 360;
#X obj 354 268 pack f f f;
#X obj 345 342 unpack f f f;
#X obj 378 522 *;
#X floatatom 379 555 5 0 0 0 C - -, f 5;
#X obj 469 530 +;
#X obj 469 506 * -1;
#X floatatom 469 554 5 0 0 0 m - -, f 5;
#X obj 292 377 / 60;
#X obj 295 427 - 1;
#X obj 293 452 abs;
#X obj 294 476 * -1;
#X obj 294 499 + 1;
#X obj 294 529 *;
#X floatatom 294 554 5 0 0 0 X - -, f 5;
#X obj 491 586 s m;
#N canvas 303 192 631 452 h_cases 0;
#X obj 126 31 inlet;
#X obj 86 82 moses 60;
#X obj 130 111 moses 120;
#X obj 176 136 moses 180;
#X obj 224 164 moses 240;
#X obj 269 192 moses 300;
#X msg 48 239 0;
#X msg 90 245 1;
#X msg 217 258 3;
#X msg 259 264 4;
#X msg 306 268 5;
#X msg 140 256 2;
#X obj 243 321 f;
#X obj 435 42 inlet;
#X obj 432 75 t b;
#X obj 239 358 outlet;
#X connect 0 0 1 0;
#X connect 1 0 6 0;
#X connect 1 1 2 0;
#X connect 2 0 7 0;
#X connect 2 1 3 0;
#X connect 3 0 11 0;
#X connect 3 1 4 0;
#X connect 4 0 8 0;
#X connect 4 1 5 0;
#X connect 5 0 9 0;
#X connect 5 1 10 0;
#X connect 6 0 12 1;
#X connect 7 0 12 1;
#X connect 8 0 12 1;
#X connect 9 0 12 1;
#X connect 10 0 12 1;
#X connect 11 0 12 1;
#X connect 12 0 15 0;
#X connect 13 0 14 0;
#X connect 14 0 12 0;
#X restore 153 566 pd h_cases;
#N canvas 505 319 649 301 CXvectors 0;
#X obj 168 21 inlet;
#X text 239 25 x and C;
#X obj 33 36 inlet;
#X msg 20 127 set \$2 \$1 0;
#X msg 103 127 set \$1 \$2 0;
#X msg 189 124 set 0 \$2 \$1;
#X msg 281 123 set 0 \$1 \$2;
#X msg 376 122 set \$1 0 \$2;
#X msg 482 121 set\$2 0 \$1;
#X obj 33 64 select 0 1 2 3 4 5;
#X msg 21 162 0.88216 0.268177 0;
#X obj 252 268 outlet;
#X msg 105 160 0.268177 0.88216 0;
#X msg 191 161 0 0.88216 0.268177;
#X msg 283 159 0 0.268177 0.88216;
#X msg 379 160 0.268177 0 0.88216;
#X msg 482 159;
#X connect 0 0 3 0;
#X connect 0 0 4 0;
#X connect 0 0 5 0;
#X connect 0 0 6 0;
#X connect 0 0 7 0;
#X connect 0 0 8 0;
#X connect 2 0 9 0;
#X connect 3 0 10 0;
#X connect 4 0 12 0;
#X connect 5 0 13 0;
#X connect 6 0 14 0;
#X connect 7 0 15 0;
#X connect 8 0 16 0;
#X connect 9 0 10 0;
#X connect 9 1 12 0;
#X connect 9 2 13 0;
#X connect 9 3 14 0;
#X connect 9 4 15 0;
#X connect 9 5 16 0;
#X connect 10 0 11 0;
#X connect 12 0 11 0;
#X connect 13 0 11 0;
#X connect 14 0 11 0;
#X connect 15 0 11 0;
#X connect 16 0 11 0;
#X restore 259 656 pd CXvectors;
#X obj 306 616 pack f f;
#X obj 235 712 s rgbprime;
#X obj 243 593 t b a;
#X floatatom 243 383 5 0 0 0 - - -, f 5;
#X floatatom 239 420 5 0 0 0 - - -, f 5;
#X obj 180 389 * 1000;
#X obj 174 420 % 2000;
#X obj 163 446 / 1000;
#X obj 269 117 t b a;
#X obj 332 244 f;
#X obj 369 243 f;
#X obj 409 242 f;
#X obj 252 141 s send_all;
#X obj 345 118 t b a;
#X obj 328 142 s send_all;
#X obj 430 119 t b a;
#X obj 413 143 s send_all;
#X obj 496 178 r send_all;
#X obj 484 206 t b b b;
#X obj 561 667 +;
#X obj 593 613 unpack f f f;
#X obj 591 666 r m;
#X obj 562 691 * 255;
#X obj 623 665 +;
#X obj 653 664 r m;
#X obj 623 689 * 255;
#X obj 684 665 +;
#X obj 714 664 r m;
#X obj 685 689 * 255;
#X obj 593 586 r rgbprime;
#X obj 434 746 outlet;
#X obj 520 745 outlet;
#X obj 598 744 outlet;
#X obj 205 24 inlet;
#X obj 357 18 inlet;
#X obj 460 14 inlet;
#X connect 0 0 26 0;
#X connect 1 0 2 0;
#X connect 2 0 8 0;
#X connect 2 0 16 0;
#X connect 2 1 3 0;
#X connect 2 2 3 1;
#X connect 2 2 5 1;
#X connect 3 0 4 0;
#X connect 3 0 6 0;
#X connect 4 0 13 1;
#X connect 4 0 18 1;
#X connect 5 0 7 0;
#X connect 6 0 5 0;
#X connect 7 0 15 0;
#X connect 8 0 21 0;
#X connect 8 0 23 0;
#X connect 9 0 10 0;
#X connect 10 0 11 0;
#X connect 11 0 12 0;
#X connect 12 0 13 0;
#X connect 13 0 14 0;
#X connect 14 0 18 0;
#X connect 16 0 17 0;
#X connect 17 0 19 0;
#X connect 18 0 20 0;
#X connect 20 0 16 1;
#X connect 20 1 17 1;
#X connect 23 0 24 0;
#X connect 24 0 25 0;
#X connect 25 0 9 0;
#X connect 25 0 22 0;
#X connect 26 0 30 0;
#X connect 26 1 27 1;
#X connect 27 0 1 0;
#X connect 28 0 1 1;
#X connect 29 0 1 2;
#X connect 31 0 32 0;
#X connect 31 1 28 1;
#X connect 33 0 34 0;
#X connect 33 1 29 1;
#X connect 35 0 36 0;
#X connect 36 0 27 0;
#X connect 36 1 28 0;
#X connect 36 2 29 0;
#X connect 37 0 40 0;
#X connect 38 0 37 0;
#X connect 38 1 41 0;
#X connect 38 2 44 0;
#X connect 39 0 37 1;
#X connect 40 0 48 0;
#X connect 41 0 43 0;
#X connect 42 0 41 1;
#X connect 43 0 49 0;
#X connect 44 0 46 0;
#X connect 45 0 44 1;
#X connect 46 0 50 0;
#X connect 47 0 38 0;
#X connect 51 0 0 0;
#X connect 52 0 31 0;
#X connect 53 0 33 0;
#X restore 319 244 pd hsv_conversion;
#X obj 730 117 bng 50 250 50 0 empty empty empty 17 7 0 10 -258049
-1 -1;
#X obj 666 118 bng 50 250 50 0 empty empty empty 17 7 0 10 -262081
-1 -1;
#X obj 605 118 bng 50 250 50 0 empty empty empty 17 7 0 10 -4033 -1
-1;
#X obj 555 43 vsl 30 200 0 255 0 0 empty empty suit\ dim 0 -9 0 10
-262144 -1 -1 0 1;
#X obj 610 224 line;
#X msg 806 209 0 500;
#X obj 656 84 motion_receive;
#X obj 661 14 tgl 50 0 empty empty receive\ motion 17 7 0 10 -104064
-33 -105728 1 1;
#X msg 611 189 75 100;
#X msg 669 185 125 100;
#X obj 803 187 delay 50;
#N canvas 42 105 657 628 pitch-tracking 0;
#X obj 113 9 adc~;
#X floatatom 119 122 5 0 0 0 - - -, f 5;
#X obj 121 148 - 36;
#X obj 121 170 / 61;
#X obj 119 198 outlet;
#X obj 240 198 outlet;
#X obj 127 77 fiddle~ 2048 1 20 2;
#X obj 176 128 unpack;
#X connect 0 0 6 0;
#X connect 0 1 6 0;
#X connect 1 0 2 0;
#X connect 2 0 3 0;
#X connect 3 0 4 0;
#X connect 6 0 1 0;
#X connect 6 2 7 0;
#X connect 6 3 5 0;
#X restore 311 32 pd pitch-tracking;
#X obj 311 62 hsl 200 50 0 1 0 0 empty empty marimba\ pitch -2 -8 0
10 -2112 -106496 -106484 7946 1;
#X obj 289 271 s red;
#X obj 428 268 s blue;
#X obj 363 268 s green;
#X obj 305 157 line;
#X msg 309 127 \$1 300;
#X msg 733 186 255 50;
#X msg 258 56 255;
#X obj 257 34 loadbang;
#X obj 548 266 s suit_dim;
#X obj 258 104 s dim;
#X obj 971 85 * -1;
#X obj 972 108 + 1;
#X obj 290 210 r hue;
#X obj 347 209 r saturation;
#X obj 434 210 r value;
#X floatatom 370 133 5 0 0 0 - - -, f 5;
#X obj 1080 30 vsl 50 200 0 1 0 0 empty empty Hue 0 -9 0 10 -258049
-1 -262144 14272 1;
#X obj 1156 30 vsl 50 200 0 1 0 0 empty empty Saturation 0 -9 0 10
-258049 -1 -262144 19900 1;
#X obj 1231 31 vsl 50 200 0 1 0 0 empty empty Value 0 -9 0 10 -258049
-1 -262144 19900 1;
#X obj 1023 275 s suit_red;
#X obj 1099 272 s suit_green;
#X obj 1191 272 s suit_blue;
#X obj 816 40 line;
#X msg 816 18 \$1 50;
#X connect 3 0 17 0;
#X connect 3 1 19 0;
#X connect 3 2 18 0;
#X connect 4 0 22 0;
#X connect 4 0 14 0;
#X connect 5 0 13 0;
#X connect 5 0 14 0;
#X connect 6 0 12 0;
#X connect 6 0 14 0;
#X connect 7 0 25 0;
#X connect 8 0 7 0;
#X connect 9 0 8 0;
#X connect 10 0 6 0;
#X connect 10 1 5 0;
#X connect 10 2 4 0;
#X connect 10 3 40 0;
#X connect 11 0 10 0;
#X connect 13 0 8 0;
#X connect 14 0 9 0;
#X connect 15 0 16 0;
#X connect 16 0 21 0;
#X connect 16 0 32 0;
#X connect 20 0 0 0;
#X connect 20 0 27 0;
#X connect 21 0 20 0;
#X connect 22 0 8 0;
#X connect 23 0 2 0;
#X connect 23 0 26 0;
#X connect 24 0 23 0;
#X connect 27 0 28 0;
#X connect 28 0 33 0;
#X connect 29 0 3 0;
#X connect 30 0 3 1;
#X connect 31 0 3 2;
#X connect 39 0 1 0;
#X connect 40 0 39 0;
