#N canvas 713 0 706 860 10;
#X obj 152 247 bng 15 250 50 0 empty empty Start 17 7 0 10 -262144
-1 -262144;
#X msg 150 183 read Session3.txt;
#X obj 112 276 qlist;
#X obj 184 283 r tone;
#X floatatom 191 327 5 0 0 0 - - -, f 5;
#X floatatom 468 330 5 0 0 0 - - -, f 5;
#X obj 461 286 r dynamics;
#X msg 86 -30 rewind;
#X msg 86 -6 next;
#X msg 86 -78 bang;
#X msg 86 -54 tempo 1;
#X text 139 -79 sequence automatically;
#X text 139 -54 set relative tempo;
#X text 140 -31 go to beginning (and stop);
#X text 141 -7 single-step forward;
#X text 183 113 read a file;
#X msg 86 114 read qlist.txt;
#X msg 86 137 write /tmp/qlist.txt;
#X msg 86 42 clear;
#X msg 86 66 add 500 this is another message;
#X msg 86 90 add2 that;
#X text 143 41 empty the qlist;
#X text 159 89 add a message to a qlist but don't terminate it;
#X text 141 16 single-step forward SUPRESSING MESSAGE-SENDING;
#X msg 86 18 next 1;
#X msg 86 -102 print;
#X text 140 -103 print contents to Pd window;
#X text 219 136 write a file;
#X text 280 65 add a message to a qlist;
#X obj 515 492 line;
#X msg 515 469 \$1 1000;
#X obj 486 407 / 50;
#X obj 516 433 * 255;
#X obj 515 514 s dim;
#X obj 176 548 line;
#X msg 176 525 \$1 100;
#X obj 176 570 s red;
#X obj 275 547 line;
#X msg 275 524 \$1 100;
#X obj 358 545 line;
#X msg 358 522 \$1 100;
#X obj 275 569 s green;
#X obj 358 567 s blue;
#X symbolatom 55 528 10 0 0 0 - - -, f 10;
#X obj 186 404 note_color;
#X obj 473 362 % 51;
#X connect 0 0 2 0;
#X connect 1 0 2 0;
#X connect 3 0 4 0;
#X connect 4 0 44 0;
#X connect 5 0 45 0;
#X connect 6 0 5 0;
#X connect 7 0 2 0;
#X connect 8 0 2 0;
#X connect 18 0 2 0;
#X connect 25 0 2 0;
#X connect 29 0 33 0;
#X connect 30 0 29 0;
#X connect 31 0 32 0;
#X connect 32 0 30 0;
#X connect 34 0 36 0;
#X connect 35 0 34 0;
#X connect 37 0 41 0;
#X connect 38 0 37 0;
#X connect 39 0 42 0;
#X connect 40 0 39 0;
#X connect 44 0 43 0;
#X connect 44 1 35 0;
#X connect 44 2 38 0;
#X connect 44 3 40 0;
#X connect 45 0 31 0;
