#N canvas 713 0 706 860 10;
#X obj 595 28 bng 30 250 50 0 empty empty Start 42 7 0 10 -262144 -1
-262144;
#X obj 335 571 line;
#X msg 335 548 \$1 1000;
#X obj 336 512 * 255;
#X obj 92 549 line;
#X msg 92 526 \$1 100;
#X obj 191 548 line;
#X msg 191 525 \$1 100;
#X obj 274 546 line;
#X msg 274 523 \$1 100;
#X symbolatom 69 673 10 0 0 0 - - -, f 10;
#X obj 57 403 note_color;
#N canvas 713 0 706 883 pitch_module 0;
#N canvas 20 79 657 651 pitch-tracking 0;
#X obj 118 84 adc~;
#X floatatom 178 227 5 0 0 0 - - -, f 5;
#X obj 180 253 - 36;
#X obj 180 275 / 61;
#X obj 178 303 outlet;
#X obj 247 303 outlet;
#X obj 134 182 fiddle~ 2048 1 20 2;
#X obj 95 302 outlet;
#X connect 0 0 6 0;
#X connect 0 1 6 0;
#X connect 1 0 2 0;
#X connect 2 0 3 0;
#X connect 3 0 4 0;
#X connect 6 0 1 0;
#X connect 6 0 7 0;
#X connect 6 3 5 0;
#X restore 45 90 pd pitch-tracking;
#X obj 413 243 hsl 128 15 0 1 0 0 empty empty empty -2 -8 0 10 -262144
-1 -1 0 1;
#X obj 413 268 * 255;
#X obj 335 447 rand_fader;
#X obj 172 441 rand_fader;
#X obj 254 449 rand_fader;
#X obj 144 276 % 12;
#X obj 144 307 i;
#X floatatom 97 210 5 0 0 0 - - -, f 5;
#X floatatom 277 298 5 0 0 0 - - -, f 5;
#X obj 167 232 + 0.2;
#X obj 218 373 note_color;
#X symbolatom 100 433 10 0 0 0 - - -, f 10;
#X obj 263 61 inlet;
#X obj 100 167 spigot;
#X obj 265 197 spigot;
#X obj 180 492 outlet;
#X obj 260 486 outlet;
#X obj 338 491 outlet;
#X obj 422 405 outlet;
#X obj 100 495 outlet;
#X connect 0 0 14 0;
#X connect 0 1 15 0;
#X connect 1 0 2 0;
#X connect 2 0 19 0;
#X connect 3 0 18 0;
#X connect 4 0 16 0;
#X connect 5 0 17 0;
#X connect 6 0 7 0;
#X connect 6 0 9 0;
#X connect 7 0 11 0;
#X connect 10 0 6 0;
#X connect 11 0 12 0;
#X connect 11 1 4 0;
#X connect 11 2 5 0;
#X connect 11 3 3 0;
#X connect 12 0 20 0;
#X connect 13 0 14 1;
#X connect 13 0 15 1;
#X connect 14 0 8 0;
#X connect 14 0 10 0;
#X connect 15 0 1 0;
#X restore 446 670 pd pitch_module;
#X obj 622 608 tgl 28 0 empty empty empty 17 7 0 10 -262144 -1 -1 0
1;
#X obj 362 759 line;
#X msg 362 736 \$1 100;
#X obj 461 758 line;
#X msg 461 735 \$1 100;
#X obj 544 756 line;
#X msg 544 733 \$1 100;
#X obj 638 757 line;
#X msg 639 732 \$1 1000;
#X symbolatom 194 734 10 0 0 0 - - -, f 10;
#X obj 94 102 clear_all;
#X obj 39 72 bng 20 250 50 0 empty empty Clear 33 0 0 10 -262144 -1
-262144;
#X obj 274 568 s blue;
#X obj 180 574 s green;
#X obj 92 571 s red;
#X obj 362 781 s suit_red;
#X obj 450 784 s suit_green;
#X obj 543 778 s suit_blue;
#X obj 639 785 s suit_dim;
#X obj 26 170 bng 30 250 50 0 empty empty C\ minor 47 13 0 10 -262144
-1 -262144;
#X obj 336 593 s dim;
#X obj 139 170 bng 30 250 50 0 empty empty F\ major 47 13 0 10 -262144
-1 -262144;
#X msg 24 223 0 50;
#X obj 117 313 unpack f f;
#X msg 140 219 5 100;
#X obj 248 168 bng 30 250 50 0 empty empty Bb\ major 47 13 0 10 -262144
-1 -262144;
#X msg 249 217 10 100;
#X obj 361 168 bng 30 250 50 0 empty empty Octatonic\ scale 47 13 0
10 -262144 -1 -262144;
#X msg 362 217 3 100;
#X obj 376 276 bng 30 250 50 0 empty empty Whole\ tone\ scale 47 13
0 10 -262144 -1 -262144;
#X msg 377 325 3 100;
#X obj 390 374 bng 30 250 50 0 empty empty C\ major 47 13 0 10 -262144
-1 -262144;
#X msg 391 424 0 100;
#X obj 620 98 bng 30 250 50 0 empty empty Stop 58 5 0 10 -262144 -1
-262144;
#X obj 644 166 clear_all;
#X connect 0 0 13 0;
#X connect 0 0 32 0;
#X connect 1 0 33 0;
#X connect 2 0 1 0;
#X connect 3 0 2 0;
#X connect 4 0 27 0;
#X connect 5 0 4 0;
#X connect 6 0 26 0;
#X connect 7 0 6 0;
#X connect 8 0 25 0;
#X connect 9 0 8 0;
#X connect 11 0 10 0;
#X connect 11 1 5 0;
#X connect 11 2 7 0;
#X connect 11 3 9 0;
#X connect 12 0 22 0;
#X connect 12 1 15 0;
#X connect 12 2 17 0;
#X connect 12 3 19 0;
#X connect 12 4 21 0;
#X connect 13 0 12 0;
#X connect 14 0 28 0;
#X connect 15 0 14 0;
#X connect 16 0 29 0;
#X connect 17 0 16 0;
#X connect 18 0 30 0;
#X connect 19 0 18 0;
#X connect 20 0 31 0;
#X connect 21 0 20 0;
#X connect 24 0 23 0;
#X connect 32 0 35 0;
#X connect 34 0 37 0;
#X connect 35 0 36 0;
#X connect 36 0 11 0;
#X connect 36 1 3 0;
#X connect 37 0 36 0;
#X connect 38 0 39 0;
#X connect 39 0 36 0;
#X connect 40 0 41 0;
#X connect 41 0 36 0;
#X connect 42 0 43 0;
#X connect 43 0 36 0;
#X connect 44 0 45 0;
#X connect 45 0 36 0;
#X connect 46 0 47 0;
#X connect 46 0 13 0;
