#N canvas -7 0 706 860 10;
#X obj 422 206 bng 30 250 50 0 empty empty Start 32 7 0 10 -262144
-1 -262144;
#X obj 87 217 qlist;
#X obj 153 323 r tone;
#X floatatom 160 367 5 0 0 0 - - -, f 5;
#X floatatom 468 330 5 0 0 0 - - -, f 5;
#X obj 461 286 r dynamics;
#X msg 76 12 rewind;
#X msg 98 38 next;
#X text 131 11 go to beginning (and stop);
#X text 153 37 single-step forward;
#X msg 118 69 clear;
#X text 175 68 empty the qlist;
#X msg 173 242 print;
#X text 227 242 print contents to Pd window;
#X obj 515 492 line;
#X msg 515 469 \$1 1000;
#X obj 486 407 / 50;
#X obj 516 433 * 255;
#X obj 176 548 line;
#X msg 176 525 \$1 100;
#X obj 275 547 line;
#X msg 275 524 \$1 100;
#X obj 358 545 line;
#X msg 358 522 \$1 100;
#X symbolatom 69 673 10 0 0 0 - - -, f 10;
#X obj 186 404 note_color;
#X obj 473 362 % 51;
#X msg 199 161 read Session3_slow.txt;
#N canvas 713 0 706 883 pitch_module 1;
#N canvas 20 79 657 651 pitch-tracking 0;
#X obj 118 84 adc~;
#X floatatom 178 227 5 0 0 0 - - -, f 5;
#X obj 180 253 - 36;
#X obj 180 275 / 61;
#X obj 178 303 outlet;
#X obj 247 303 outlet;
#X obj 134 182 fiddle~ 2048 1 20 2;
#X obj 95 302 outlet;
#X connect 0 0 6 0;
#X connect 0 1 6 0;
#X connect 1 0 2 0;
#X connect 2 0 3 0;
#X connect 3 0 4 0;
#X connect 6 0 1 0;
#X connect 6 0 7 0;
#X connect 6 3 5 0;
#X restore 45 90 pd pitch-tracking;
#X obj 413 243 hsl 128 15 0 1 0 0 empty empty empty -2 -8 0 10 -262144
-1 -1 4802 1;
#X obj 413 268 * 255;
#X obj 335 447 rand_fader;
#X obj 172 441 rand_fader;
#X obj 254 449 rand_fader;
#X obj 144 276 % 12;
#X obj 144 307 i;
#X floatatom 97 210 5 0 0 0 - - -, f 5;
#X floatatom 277 298 5 0 0 0 - - -, f 5;
#X obj 167 232 + 0.2;
#X obj 218 373 note_color;
#X symbolatom 100 433 10 0 0 0 - - -, f 10;
#X obj 263 61 inlet;
#X obj 100 167 spigot;
#X obj 265 197 spigot;
#X obj 180 492 outlet;
#X obj 260 486 outlet;
#X obj 338 491 outlet;
#X obj 422 405 outlet;
#X obj 100 495 outlet;
#X connect 0 0 14 0;
#X connect 0 1 15 0;
#X connect 1 0 2 0;
#X connect 2 0 19 0;
#X connect 3 0 18 0;
#X connect 4 0 16 0;
#X connect 5 0 17 0;
#X connect 6 0 7 0;
#X connect 6 0 9 0;
#X connect 7 0 11 0;
#X connect 10 0 6 0;
#X connect 11 0 12 0;
#X connect 11 1 4 0;
#X connect 11 2 5 0;
#X connect 11 3 3 0;
#X connect 12 0 20 0;
#X connect 13 0 14 1;
#X connect 13 0 15 1;
#X connect 14 0 8 0;
#X connect 14 0 10 0;
#X connect 15 0 1 0;
#X restore 446 670 pd pitch_module;
#X obj 417 453 tgl 15 0 empty empty empty 17 7 0 10 -262144 -1 -1 0
1;
#X obj 362 759 line;
#X msg 362 736 \$1 100;
#X obj 461 758 line;
#X msg 461 735 \$1 100;
#X obj 544 756 line;
#X msg 544 733 \$1 100;
#X obj 362 781 s red;
#X obj 450 784 s green;
#X obj 544 778 s blue;
#X obj 176 570 s suit_red;
#X obj 264 573 s suit_green;
#X obj 358 567 s suit_blue;
#X obj 516 514 s suit_dim;
#X obj 638 757 line;
#X msg 639 732 \$1 1000;
#X obj 639 785 s dim;
#X symbolatom 194 734 10 0 0 0 - - -, f 10;
#X msg 319 117 read Session3_slow-test.txt;
#X obj 95 291 clear_all;
#X obj 40 260 bng 20 250 50 0 empty empty Clear 33 0 0 10 -262144 -1
-262144;
#X msg 131 131 read Session3_v2.txt;
#X connect 0 0 1 0;
#X connect 0 0 29 0;
#X connect 1 1 29 0;
#X connect 1 1 48 0;
#X connect 2 0 3 0;
#X connect 3 0 25 0;
#X connect 4 0 26 0;
#X connect 5 0 4 0;
#X connect 6 0 1 0;
#X connect 7 0 1 0;
#X connect 10 0 1 0;
#X connect 12 0 1 0;
#X connect 14 0 42 0;
#X connect 15 0 14 0;
#X connect 16 0 17 0;
#X connect 17 0 15 0;
#X connect 18 0 39 0;
#X connect 19 0 18 0;
#X connect 20 0 40 0;
#X connect 21 0 20 0;
#X connect 22 0 41 0;
#X connect 23 0 22 0;
#X connect 25 0 24 0;
#X connect 25 1 19 0;
#X connect 25 2 21 0;
#X connect 25 3 23 0;
#X connect 26 0 16 0;
#X connect 27 0 1 0;
#X connect 28 0 46 0;
#X connect 28 1 31 0;
#X connect 28 2 33 0;
#X connect 28 3 35 0;
#X connect 28 4 44 0;
#X connect 29 0 28 0;
#X connect 30 0 36 0;
#X connect 31 0 30 0;
#X connect 32 0 37 0;
#X connect 33 0 32 0;
#X connect 34 0 38 0;
#X connect 35 0 34 0;
#X connect 43 0 45 0;
#X connect 44 0 43 0;
#X connect 47 0 1 0;
#X connect 49 0 48 0;
#X connect 50 0 1 0;
