#N canvas 602 68 704 497 10;
#N canvas 20 79 657 651 pitch-tracking 1;
#X obj 113 9 adc~;
#X floatatom 171 122 5 0 0 0 - - -, f 5;
#X obj 173 148 - 36;
#X obj 173 170 / 61;
#X obj 171 198 outlet;
#X obj 240 198 outlet;
#X obj 127 77 fiddle~ 2048 1 20 2;
#X obj 88 197 outlet;
#X connect 0 0 6 0;
#X connect 0 1 6 0;
#X connect 1 0 2 0;
#X connect 2 0 3 0;
#X connect 3 0 4 0;
#X connect 6 0 1 0;
#X connect 6 0 7 0;
#X connect 6 3 5 0;
#X restore 103 62 pd pitch-tracking;
#X obj 363 46 hsl 128 15 0 1 0 0 empty empty empty -2 -8 0 10 -262144
-1 -1 9388 1;
#X obj 108 184 detect_pitch_class;
#X obj 69 297 bng 15 250 50 0 empty empty empty 17 7 0 10 -262144 -1
-1;
#X obj 100 249 bng 15 250 50 0 empty empty empty 17 7 0 10 -262144
-1 -1;
#X obj 181 249 bng 15 250 50 0 empty empty empty 17 7 0 10 -262144
-1 -1;
#X obj 100 249 bng 15 250 50 0 empty empty empty 17 7 0 10 -262144
-1 -1;
#X obj 150 297 bng 15 250 50 0 empty empty empty 17 7 0 10 -262144
-1 -1;
#X obj 347 248 bng 15 250 50 0 empty empty empty 17 7 0 10 -262144
-1 -1;
#X obj 341 375 unpack f f f;
#X obj 306 458 s red;
#X obj 366 171 s dim;
#X obj 355 458 s green;
#X obj 412 458 s blue;
#X obj 363 71 * 255;
#X msg 69 317 255 0 0;
#X obj 364 122 line;
#X msg 483 317 0 255 0;
#X msg 564 315 0 0 255;
#X msg 95 273 182 66 244;
#X msg 232 317 255 255 255;
#X msg 316 319 145 47 1;
#X msg 151 318 255 255 0;
#X obj 232 297 bng 15 250 50 0 empty empty empty 17 7 0 10 -262144
-1 -1;
#X obj 314 294 bng 15 250 50 0 empty empty empty 17 7 0 10 -262144
-1 -1;
#X obj 387 296 bng 15 250 50 0 empty empty empty 17 7 0 10 -262144
-1 -1;
#X msg 397 319 255 40 0;
#X obj 434 244 bng 15 250 50 0 empty empty empty 17 7 0 10 -262144
-1 -1;
#X msg 435 269 255 0 111;
#X obj 482 292 bng 15 250 50 0 empty empty empty 17 7 0 10 -262144
-1 -1;
#X obj 521 246 bng 15 250 50 0 empty empty empty 17 7 0 10 -262144
-1 -1;
#X msg 523 268 86 86 86;
#X obj 559 290 bng 15 250 50 0 empty empty empty 17 7 0 10 -262144
-1 -1;
#X msg 349 269 41 255 255;
#X msg 365 97 \$1 1000;
#X obj 424 147 hsl 128 15 0 255 0 0 empty empty empty -2 -8 0 10 -262144
-1 -1 7386 1;
#X msg 186 274 0 110 20, f 12;
#X obj 422 417 rand_fader;
#X obj 192 416 rand_fader;
#X obj 349 421 rand_fader;
#X floatatom 306 71 5 0 0 0 - - -, f 5;
#X obj 367 12 sqrt;
#X connect 0 0 2 0;
#X connect 0 1 41 0;
#X connect 1 0 14 0;
#X connect 1 0 40 0;
#X connect 2 0 3 0;
#X connect 2 1 6 0;
#X connect 2 2 7 0;
#X connect 2 3 5 0;
#X connect 2 4 23 0;
#X connect 2 5 24 0;
#X connect 2 6 8 0;
#X connect 2 7 25 0;
#X connect 2 8 27 0;
#X connect 2 9 29 0;
#X connect 2 10 30 0;
#X connect 2 11 32 0;
#X connect 3 0 15 0;
#X connect 5 0 36 0;
#X connect 6 0 19 0;
#X connect 7 0 22 0;
#X connect 8 0 33 0;
#X connect 9 0 38 0;
#X connect 9 1 39 0;
#X connect 9 2 37 0;
#X connect 14 0 34 0;
#X connect 15 0 9 0;
#X connect 16 0 11 0;
#X connect 16 0 35 0;
#X connect 17 0 9 0;
#X connect 18 0 9 0;
#X connect 19 0 9 0;
#X connect 20 0 9 0;
#X connect 21 0 9 0;
#X connect 22 0 9 0;
#X connect 23 0 20 0;
#X connect 24 0 21 0;
#X connect 25 0 26 0;
#X connect 26 0 9 0;
#X connect 27 0 28 0;
#X connect 28 0 9 0;
#X connect 29 0 17 0;
#X connect 30 0 31 0;
#X connect 31 0 9 0;
#X connect 32 0 18 0;
#X connect 33 0 9 0;
#X connect 34 0 16 0;
#X connect 36 0 9 0;
#X connect 37 0 13 0;
#X connect 38 0 10 0;
#X connect 39 0 12 0;
#X connect 41 0 1 0;
