#N canvas 174 105 580 439 10;
#X msg 85 366 disconnect;
#X obj 77 393 netsend -u -b;
#X obj 78 292 list prepend send;
#X obj 78 317 list trim;
#X obj 40 27 vsl 40 128 0 255 0 0 empty red red 0 -9 0 10 -258113 -1
-262144 0 1;
#X obj 87 27 vsl 40 128 0 255 0 0 empty green green 0 -9 0 10 -4034
-1 -262144 0 1;
#X obj 134 27 vsl 40 128 0 255 0 0 empty blue blue 0 -9 0 10 -4160
-1 -262144 0 1;
#X obj 181 27 vsl 40 128 0 255 0 0 empty dim dim 0 -9 0 10 -262144
-1 -262144 12700 1;
#X msg 86 342 connect 192.168.1.100 8888;
#X obj 391 269 loadbang;
#X msg 391 293 255, f 4;
#X obj 296 286 metro 10;
#X obj 294 311 s send_light;
#X obj 294 262 loadbang;
#X obj 78 258 oscformat -f iiii /light;
#N canvas 932 333 450 300 light_packer 0;
#X obj 104 108 t f b;
#X obj 153 107 t f b;
#X obj 200 106 t f b;
#X obj 103 134 i;
#X obj 153 136 i;
#X obj 200 134 i;
#X floatatom 101 162 5 0 0 0 - - -, f 5;
#X floatatom 151 161 5 0 0 0 - - -, f 5;
#X floatatom 199 165 5 0 0 0 - - -, f 5;
#X obj 250 105 t f b;
#X obj 256 136 i;
#X floatatom 255 161 5 0 0 0 - - -, f 5;
#X obj 89 203 pack f f f f;
#X obj 25 90 r send_light;
#X obj 25 112 t b b b b;
#X obj 73 34 inlet;
#X obj 150 33 inlet;
#X obj 217 34 inlet;
#X obj 295 34 inlet;
#X obj 80 255 outlet;
#X connect 0 0 3 1;
#X connect 1 0 4 1;
#X connect 2 0 5 1;
#X connect 3 0 6 0;
#X connect 3 0 12 0;
#X connect 4 0 7 0;
#X connect 4 0 12 1;
#X connect 5 0 8 0;
#X connect 5 0 12 2;
#X connect 9 0 10 1;
#X connect 10 0 11 0;
#X connect 11 0 12 3;
#X connect 12 0 19 0;
#X connect 13 0 14 0;
#X connect 14 0 3 0;
#X connect 14 1 4 0;
#X connect 14 2 5 0;
#X connect 14 3 10 0;
#X connect 15 0 0 0;
#X connect 16 0 1 0;
#X connect 17 0 2 0;
#X connect 18 0 9 0;
#X restore 77 200 pd light_packer;
#X obj 391 318 s dim;
#X connect 0 0 1 0;
#X connect 2 0 3 0;
#X connect 3 0 1 0;
#X connect 4 0 15 0;
#X connect 5 0 15 1;
#X connect 6 0 15 2;
#X connect 7 0 15 3;
#X connect 8 0 1 0;
#X connect 9 0 10 0;
#X connect 10 0 16 0;
#X connect 11 0 12 0;
#X connect 13 0 11 0;
#X connect 14 0 2 0;
#X connect 15 0 14 0;
