#N canvas 71 253 1142 304 10;
#X msg 266 256 disconnect;
#X obj 258 283 netsend -u -b;
#X obj 259 182 list prepend send;
#X obj 259 207 list trim;
#X obj 40 27 vsl 40 128 0 255 0 0 empty red red 0 -9 0 10 -258113 -1
-262144 9000 1;
#X obj 87 27 vsl 40 128 0 255 0 0 empty green green 0 -9 0 10 -4034
-1 -262144 10750 1;
#X obj 134 27 vsl 40 128 0 255 0 0 empty blue blue 0 -9 0 10 -4160
-1 -262144 10900 1;
#X obj 181 27 vsl 40 128 0 255 0 0 empty dim dim 0 -9 0 10 -262144
-1 -262144 12700 1;
#X msg 267 232 connect 192.168.1.100 8888;
#X obj 149 258 loadbang;
#X msg 149 282 255, f 4;
#X obj 59 284 metro 10;
#X obj 57 309 s send_light;
#X obj 57 260 loadbang;
#X obj 259 148 oscformat -f iiii /light;
#N canvas 932 333 450 300 light_packer 0;
#X obj 104 108 t f b;
#X obj 153 107 t f b;
#X obj 200 106 t f b;
#X obj 103 134 i;
#X obj 153 136 i;
#X obj 200 134 i;
#X floatatom 101 162 5 0 0 0 - - -, f 5;
#X floatatom 151 161 5 0 0 0 - - -, f 5;
#X floatatom 199 165 5 0 0 0 - - -, f 5;
#X obj 250 105 t f b;
#X obj 256 136 i;
#X floatatom 255 161 5 0 0 0 - - -, f 5;
#X obj 89 203 pack f f f f;
#X obj 25 90 r send_light;
#X obj 25 112 t b b b b;
#X obj 73 34 inlet;
#X obj 150 33 inlet;
#X obj 217 34 inlet;
#X obj 295 34 inlet;
#X obj 80 255 outlet;
#X connect 0 0 3 1;
#X connect 1 0 4 1;
#X connect 2 0 5 1;
#X connect 3 0 6 0;
#X connect 3 0 12 0;
#X connect 4 0 7 0;
#X connect 4 0 12 1;
#X connect 5 0 8 0;
#X connect 5 0 12 2;
#X connect 9 0 10 1;
#X connect 10 0 11 0;
#X connect 11 0 12 3;
#X connect 12 0 19 0;
#X connect 13 0 14 0;
#X connect 14 0 3 0;
#X connect 14 1 4 0;
#X connect 14 2 5 0;
#X connect 14 3 10 0;
#X connect 15 0 0 0;
#X connect 16 0 1 0;
#X connect 17 0 2 0;
#X connect 18 0 9 0;
#X restore 77 200 pd light_packer;
#X obj 149 307 s dim;
#X msg 266 256 disconnect;
#X obj 258 283 netsend -u -b;
#X obj 259 182 list prepend send;
#X obj 259 207 list trim;
#X msg 267 232 connect 192.168.1.100 8888;
#X obj 259 148 oscformat -f iiii /light;
#X msg 505 253 disconnect;
#X obj 497 280 netsend -u -b;
#X obj 498 179 list prepend send;
#X obj 498 204 list trim;
#X obj 498 145 oscformat -f iiii /pixel;
#X obj 611 256 loadbang;
#X obj 366 261 loadbang;
#X obj 258 104 spigot;
#X obj 329 60 tgl 75 0 empty empty empty 17 7 0 10 -262144 -1 -1 1
1;
#X obj 269 75 loadbang;
#X obj 498 105 spigot;
#X obj 569 61 tgl 75 0 empty empty empty 17 7 0 10 -262144 -1 -1 1
1;
#X obj 509 76 loadbang;
#X obj 77 223 s light_messages;
#X obj 255 36 r light_messages;
#X floatatom 98 171 5 0 0 0 - - -, f 5;
#X floatatom 138 171 5 0 0 0 - - -, f 5;
#X floatatom 44 172 5 0 0 0 - - -, f 5;
#X msg 506 229 connect 192.168.1.8 8888;
#X obj 698 24 vsl 40 128 0 255 0 0 empty suit_red red 0 -9 0 10 -258113
-1 -262144 0 1;
#X obj 745 24 vsl 40 128 0 255 0 0 empty suit_green green 0 -9 0 10
-4034 -1 -262144 0 1;
#X obj 792 24 vsl 40 128 0 255 0 0 empty suit_blue blue 0 -9 0 10 -4160
-1 -262144 0 1;
#X obj 839 24 vsl 40 128 0 255 0 0 empty suit_dim dim 0 -9 0 10 -262144
-1 -262144 0 1;
#X obj 742 253 loadbang;
#X msg 742 277 255, f 4;
#N canvas 932 333 450 300 light_packer 0;
#X obj 104 108 t f b;
#X obj 153 107 t f b;
#X obj 200 106 t f b;
#X obj 103 134 i;
#X obj 153 136 i;
#X obj 200 134 i;
#X floatatom 101 162 5 0 0 0 - - -, f 5;
#X floatatom 151 161 5 0 0 0 - - -, f 5;
#X floatatom 199 165 5 0 0 0 - - -, f 5;
#X obj 250 105 t f b;
#X obj 256 136 i;
#X floatatom 255 161 5 0 0 0 - - -, f 5;
#X obj 89 203 pack f f f f;
#X obj 25 90 r send_light;
#X obj 25 112 t b b b b;
#X obj 73 34 inlet;
#X obj 150 33 inlet;
#X obj 217 34 inlet;
#X obj 295 34 inlet;
#X obj 80 255 outlet;
#X connect 0 0 3 1;
#X connect 1 0 4 1;
#X connect 2 0 5 1;
#X connect 3 0 6 0;
#X connect 3 0 12 0;
#X connect 4 0 7 0;
#X connect 4 0 12 1;
#X connect 5 0 8 0;
#X connect 5 0 12 2;
#X connect 9 0 10 1;
#X connect 10 0 11 0;
#X connect 11 0 12 3;
#X connect 12 0 19 0;
#X connect 13 0 14 0;
#X connect 14 0 3 0;
#X connect 14 1 4 0;
#X connect 14 2 5 0;
#X connect 14 3 10 0;
#X connect 15 0 0 0;
#X connect 16 0 1 0;
#X connect 17 0 2 0;
#X connect 18 0 9 0;
#X restore 735 197 pd light_packer;
#X floatatom 756 168 5 0 0 0 - - -, f 5;
#X floatatom 796 168 5 0 0 0 - - -, f 5;
#X floatatom 702 169 5 0 0 0 - - -, f 5;
#X obj 499 34 r suit_messages;
#X obj 735 220 s suit_messages;
#X obj 742 302 s suit_dim;
#X obj 909 27 tgl 75 0 empty empty light\ connected\ to\ suit 77 7
0 10 -262144 -1 -262144 0 1;
#X obj 992 46 loadbang;
#X obj 912 126 tgl 75 0 empty empty connect\ colours 77 7 0 10 -262144
-1 -262144 0 1;
#N canvas 448 199 435 140 connections 0;
#X obj 26 64 r red;
#X obj 27 95 spigot;
#X obj 102 95 spigot;
#X obj 191 95 spigot;
#X obj 273 92 spigot;
#X obj 101 64 r green;
#X obj 190 64 r blue;
#X obj 272 61 r dim;
#X obj 273 121 s suit_dim;
#X obj 27 124 s suit_red;
#X obj 102 124 s suit_green;
#X obj 191 124 s suit_blue;
#X obj 232 13 inlet;
#X connect 0 0 1 0;
#X connect 1 0 9 0;
#X connect 2 0 10 0;
#X connect 3 0 11 0;
#X connect 4 0 8 0;
#X connect 5 0 2 0;
#X connect 6 0 3 0;
#X connect 7 0 4 0;
#X connect 12 0 1 1;
#X connect 12 0 4 1;
#X connect 12 0 3 1;
#X connect 12 0 2 1;
#X restore 992 82 pd connections;
#N canvas 448 199 435 140 connections 0;
#X obj 26 64 r red;
#X obj 27 95 spigot;
#X obj 102 95 spigot;
#X obj 191 95 spigot;
#X obj 101 64 r green;
#X obj 190 64 r blue;
#X obj 27 124 s suit_red;
#X obj 102 124 s suit_green;
#X obj 191 124 s suit_blue;
#X obj 232 13 inlet;
#X connect 0 0 1 0;
#X connect 1 0 6 0;
#X connect 2 0 7 0;
#X connect 3 0 8 0;
#X connect 4 0 2 0;
#X connect 5 0 3 0;
#X connect 9 0 1 1;
#X connect 9 0 3 1;
#X connect 9 0 2 1;
#X restore 1003 187 pd connections;
#X connect 0 0 1 0;
#X connect 2 0 3 0;
#X connect 3 0 1 0;
#X connect 4 0 15 0;
#X connect 4 0 40 0;
#X connect 5 0 15 1;
#X connect 5 0 38 0;
#X connect 6 0 15 2;
#X connect 6 0 39 0;
#X connect 7 0 15 3;
#X connect 8 0 1 0;
#X connect 9 0 10 0;
#X connect 10 0 16 0;
#X connect 11 0 12 0;
#X connect 13 0 11 0;
#X connect 14 0 2 0;
#X connect 15 0 36 0;
#X connect 17 0 18 0;
#X connect 19 0 20 0;
#X connect 20 0 18 0;
#X connect 21 0 18 0;
#X connect 22 0 19 0;
#X connect 23 0 24 0;
#X connect 25 0 26 0;
#X connect 26 0 24 0;
#X connect 27 0 25 0;
#X connect 28 0 41 0;
#X connect 29 0 21 0;
#X connect 30 0 22 0;
#X connect 31 0 30 1;
#X connect 32 0 31 0;
#X connect 33 0 27 0;
#X connect 34 0 33 1;
#X connect 35 0 34 0;
#X connect 37 0 30 0;
#X connect 41 0 24 0;
#X connect 42 0 48 0;
#X connect 42 0 51 0;
#X connect 43 0 48 1;
#X connect 43 0 49 0;
#X connect 44 0 48 2;
#X connect 44 0 50 0;
#X connect 45 0 48 3;
#X connect 46 0 47 0;
#X connect 47 0 54 0;
#X connect 48 0 53 0;
#X connect 52 0 33 0;
#X connect 55 0 58 0;
#X connect 56 0 55 0;
#X connect 57 0 59 0;
