#N canvas 791 123 452 325 10;
#X obj 123 82 note_color;
#X obj 33 21 hradio 30 0 1 12 empty empty empty 0 -8 0 10 -262144 -1
-1 3;
#X symbolatom 68 137 10 0 0 0 - - -, f 10;
#X floatatom 174 132 5 0 0 0 - - -, f 5;
#X floatatom 222 133 5 0 0 0 - - -, f 5;
#X floatatom 304 141 5 0 0 0 - - -, f 5;
#X obj 143 218 line;
#X msg 143 195 \$1 100;
#X obj 143 240 s red;
#X obj 242 217 line;
#X msg 242 194 \$1 100;
#X obj 325 215 line;
#X msg 325 192 \$1 100;
#X obj 242 239 s green;
#X obj 325 237 s blue;
#X obj 397 187 line;
#X msg 397 164 \$1 1000;
#X obj 397 209 s dim;
#X obj 405 13 vsl 15 128 0 255 0 0 empty empty empty 0 -9 0 10 -262144
-1 -1 11900 1;
#X connect 0 0 2 0;
#X connect 0 1 3 0;
#X connect 0 2 4 0;
#X connect 0 3 5 0;
#X connect 1 0 0 0;
#X connect 3 0 7 0;
#X connect 4 0 10 0;
#X connect 5 0 12 0;
#X connect 6 0 8 0;
#X connect 7 0 6 0;
#X connect 9 0 13 0;
#X connect 10 0 9 0;
#X connect 11 0 14 0;
#X connect 12 0 11 0;
#X connect 15 0 17 0;
#X connect 16 0 15 0;
#X connect 18 0 16 0;
